<?xml version="1.0" encoding="UTF-8"?>
<svg width="752pt" height="752pt" version="1.1" viewBox="0 0 752 752" xmlns="http://www.w3.org/2000/svg">
 <g fill="#fff">
  <path d="m376 0c-49.375 0-98.27 9.7266-143.89 28.621-45.621 18.895-87.07 46.59-121.98 81.508-34.918 34.914-62.613 76.363-81.508 121.98-18.895 45.617-28.621 94.512-28.621 143.89 0 99.723 39.617 195.36 110.13 265.87 70.516 70.516 166.15 110.13 265.87 110.13 99.723 0 195.36-39.617 265.87-110.13 70.512-70.512 110.13-166.15 110.13-265.87 0-99.719-39.613-195.36-110.12-265.87-70.516-70.516-166.15-110.13-265.88-110.13zm0 42.465c43.316 0 86.207 8.625 126.23 25.387 40.02 16.762 76.379 41.332 107.01 72.305s54.926 67.738 71.5 108.21c16.578 40.465 25.105 83.84 25.105 127.64 0 88.461-34.75 173.3-96.605 235.84-61.859 62.551-145.75 97.691-233.23 97.691-43.312 0-86.207-8.625-126.22-25.387-40.02-16.762-76.383-41.332-107.01-72.301-30.629-30.973-54.926-67.742-71.504-108.21-16.574-40.469-25.105-83.84-25.105-127.64s8.5312-87.172 25.105-127.64c16.578-40.469 40.871-77.238 71.5-108.21 30.629-30.969 66.992-55.539 107.01-72.301 40.02-16.762 82.914-25.387 126.23-25.387z"/>
  <path d="m277.64 392.97 24.367 24.367 16.969-16.969c2.8906-2.8867 7.5742-2.8867 10.461 0l9.5703 9.5703v-41.336h-96.195v48.734l24.367-24.367c2.8867-2.8867 7.5703-2.8867 10.461 0zm16.969-9.5664h14.801v14.801l-14.801-0.003906z"/>
  <path d="m346.4 509.2v22.199c0 5.2891 2.8203 10.172 7.3984 12.816 4.582 2.6445 10.223 2.6445 14.801 0 4.5781-2.6445 7.3984-7.5273 7.3984-12.816v-184.99c0.03125-5.2109 1.4531-10.32 4.1172-14.801h-159.51c-3.9258 0-7.6914 1.5625-10.465 4.3359-2.7773 2.7773-4.3359 6.5391-4.3359 10.465v155.39h133.2c1.9609 0 3.8438 0.77734 5.2305 2.168 1.3867 1.3867 2.168 3.2695 2.168 5.2305zm-118.39-147.99c0-4.0859 3.3125-7.4023 7.3984-7.4023h111c1.9609 0 3.8438 0.78125 5.2344 2.168 1.3867 1.3867 2.1641 3.2695 2.1641 5.2344v88.797c0 1.9609-0.77734 3.8438-2.1641 5.2305-1.3906 1.3867-3.2734 2.168-5.2344 2.168h-111c-4.0859 0-7.3984-3.3125-7.3984-7.3984zm14.801 125.8-14.801-0.003906v-14.797h14.801zm14.801-14.801h96.191v14.801l-96.195-0.003906z"/>
  <path d="m339 430.86-14.801-14.801-16.969 16.969c-2.8867 2.8867-7.5703 2.8867-10.461 0l-24.367-24.367-29.598 29.598v4.3359h96.195z"/>
  <path d="m361.2 191.01c0-7.9297-4.2305-15.258-11.102-19.223-6.8672-3.9648-15.328-3.9648-22.199 0-6.8672 3.9648-11.098 11.293-11.098 19.223v51.797h44.398zm-14.801 37h-14.801v-14.801h14.801zm0-29.598h-14.801v-14.801h14.801z"/>
  <path d="m450 464.8c3.9219 0 7.6875-1.5586 10.465-4.332 2.7734-2.7773 4.332-6.543 4.332-10.465v-140.6c0.03125-5.2109 1.4531-10.316 4.1133-14.797h-144.71c-3.9258 0-7.6875 1.5586-10.465 4.332-2.7734 2.7773-4.3359 6.543-4.3359 10.465v7.3984l96.199 0.003907c7.8477 0 15.379 3.1172 20.93 8.668 5.5508 5.5508 8.668 13.078 8.668 20.93v103.6c0 3.9219 1.5586 7.6875 4.3359 10.465 2.7734 2.7734 6.5391 4.332 10.465 4.332z"/>
  <path d="m509.2 191.01c0-7.9297-4.2305-15.258-11.098-19.223-6.8711-3.9648-15.332-3.9648-22.199 0-6.8711 3.9648-11.102 11.293-11.102 19.223v51.797h44.398zm-14.801 37h-14.797v-14.801h14.801zm0-29.598h-14.797v-14.801h14.801z"/>
  <path d="m492.64 583.19h47.918l-23.957-19.961z"/>
  <path d="m331.6 531.39v-14.797h-162.79v14.801-0.003907c0 3.9258 1.5586 7.6914 4.3359 10.465 2.7734 2.7773 6.5391 4.3359 10.465 4.3359h151.97c-2.6133-4.4961-3.9844-9.6016-3.9766-14.801z"/>
  <path d="m509.2 550.13v-151.93h-29.598v51.801c0 7.8477-3.1172 15.379-8.668 20.93-5.5508 5.5508-13.082 8.668-20.93 8.668h-59.199v51.797c0 7.8516-3.1172 15.379-8.668 20.93-5.5508 5.5508-13.082 8.668-20.93 8.668h-133.2v22.199h236.79v-96.195h14.801v87.797z"/>
  <path d="m405.6 331.6c-3.9258 0-7.6914 1.5625-10.465 4.3359-2.7773 2.7773-4.3359 6.5391-4.3359 10.465v118.39h33.715c-2.6641-4.4766-4.0859-9.5859-4.1172-14.797v-103.6c0-3.9258-1.5586-7.6875-4.332-10.465-2.7773-2.7734-6.543-4.3359-10.465-4.3359z"/>
  <path d="m524 550.13 29.598 24.66v-176.59h-29.598z"/>
  <path d="m272.41 257.61v59.199h22.199v-7.4023c0-7.8477 3.1172-15.375 8.668-20.93 5.5508-5.5508 13.078-8.668 20.93-8.668h170.2c7.8477 0 15.375 3.1172 20.926 8.668 5.5547 5.5547 8.6719 13.082 8.6719 20.93v59.199h-14.801v-59.199c0-5.2852-2.8203-10.172-7.3984-12.816-4.5781-2.6406-10.223-2.6406-14.801 0-4.5781 2.6445-7.3984 7.5312-7.3984 12.816v74h73.996v-125.8z"/>
 </g>
</svg>
