<?xml version="1.0" encoding="UTF-8"?>
<svg width="752pt" height="752pt" version="1.1" viewBox="0 0 752 752" xmlns="http://www.w3.org/2000/svg">
 <g fill="#000100">
  <path d="m141.36 141.36v356.62h469.99v-356.62zm459.23 10.762v67.449l-448.47 0.003906v-67.453zm-448.47 335.1v-257.6h448.47v256.88h-448.47z"/>
  <path d="m560.41 208.81c12.914 0 22.961-10.047 22.961-22.961 0-12.914-10.047-22.961-22.961-22.961-12.914 0-22.961 10.047-22.961 22.961 0 12.914 10.047 22.961 22.961 22.961zm0-34.441c6.457 0 12.199 5.7422 12.199 12.199 0 6.457-5.7422 12.199-12.199 12.199-6.457-0.003906-12.199-5.7422-12.199-12.199 0-6.4609 5.7422-12.199 12.199-12.199z"/>
  <path d="m497.27 208.81c12.914 0 22.961-10.047 22.961-22.961 0-12.914-10.047-22.961-22.961-22.961s-22.961 10.047-22.961 22.961c0 12.914 10.766 22.961 22.961 22.961zm0-34.441c6.457 0 12.199 5.7422 12.199 12.199 0 6.457-5.7422 12.199-12.199 12.199s-12.199-5.7422-12.199-12.199c0.003906-6.4609 5.7422-12.199 12.199-12.199z"/>
  <path d="m434.12 208.81c12.914 0 22.961-10.047 23.68-22.242 0.71875-12.914-9.3281-22.961-22.242-23.68-12.914 0-22.961 9.3281-23.68 22.242-0.71875 12.918 9.3281 23.68 22.242 23.68zm0.71875-34.441c7.1758 0 12.199 5.7422 12.199 12.199 0 6.457-5.7422 11.48-12.199 11.48-6.457 0-12.199-5.7422-11.48-12.199-0.71875-6.457 5.0234-11.48 11.48-11.48z"/>
  <path d="m173.65 180.83h160.73v10.762h-160.73z"/>
  <path d="m248.28 282.72-75.34 74.625 75.34 75.344 7.8945-7.8945-68.168-67.449 68.168-67.449z"/>
  <path d="m495.83 289.89 68.168 67.449-68.168 67.449 7.8945 7.8945 75.34-75.344-75.34-74.625z"/>
  <path d="m259.76 313.57h72.473v10.762h-72.473z"/>
  <path d="m352.32 313.57h42.336v10.762h-42.336z"/>
  <path d="m411.88 313.57h35.16v10.762h-35.16z"/>
  <path d="m467.85 313.57h25.113v10.762h-25.113z"/>
  <path d="m259.76 352.32h15.07v10.762h-15.07z"/>
  <path d="m294.92 352.32h71.039v10.762h-71.039z"/>
  <path d="m383.18 352.32h49.512v10.762h-49.512z"/>
  <path d="m453.5 352.32h39.465v10.762h-39.465z"/>
  <path d="m259.76 390.35h58.121v10.762h-58.121z"/>
  <path d="m337.97 390.35h71.039v10.762h-71.039z"/>
  <path d="m426.23 390.35h35.16v10.762h-35.16z"/>
  <path d="m482.2 390.35h10.762v10.762h-10.762z"/>
  <path d="m168.63 611.36h409l0.003906-105.48h-409zm10.766-94.715h387.48v83.234h-387.48z"/>
  <path d="m193.03 526.69h16.504v10.762h-16.504z"/>
  <path d="m231.06 526.69h16.504v10.762h-16.504z"/>
  <path d="m269.8 526.69h16.504v10.762h-16.504z"/>
  <path d="m307.84 526.69h16.504v10.762h-16.504z"/>
  <path d="m345.86 526.69h16.504v10.762h-16.504z"/>
  <path d="m384.61 526.69h16.504v10.762h-16.504z"/>
  <path d="m422.64 526.69h16.504v10.762h-16.504z"/>
  <path d="m460.67 526.69h16.504v10.762h-16.504z"/>
  <path d="m499.42 526.69h16.504v10.762h-16.504z"/>
  <path d="m537.45 526.69h16.504v10.762h-16.504z"/>
  <path d="m193.03 553.23h16.504v10.762h-16.504z"/>
  <path d="m231.06 553.23h16.504v10.762h-16.504z"/>
  <path d="m269.8 553.23h16.504v10.762h-16.504z"/>
  <path d="m307.84 553.23h16.504v10.762h-16.504z"/>
  <path d="m345.86 553.23h16.504v10.762h-16.504z"/>
  <path d="m384.61 553.23h16.504v10.762h-16.504z"/>
  <path d="m422.64 553.23h16.504v10.762h-16.504z"/>
  <path d="m460.67 553.23h16.504v10.762h-16.504z"/>
  <path d="m499.42 553.23h16.504v10.762h-16.504z"/>
  <path d="m537.45 553.23h16.504v10.762h-16.504z"/>
  <path d="m193.03 579.79h16.504v10.762h-16.504z"/>
  <path d="m231.06 579.79h16.504v10.762h-16.504z"/>
  <path d="m269.8 579.79h92.562v10.762h-92.562z"/>
  <path d="m384.61 579.79h16.504v10.762h-16.504z"/>
  <path d="m422.64 579.79h16.504v10.762h-16.504z"/>
  <path d="m460.67 579.79h16.504v10.762h-16.504z"/>
  <path d="m499.42 579.79h16.504v10.762h-16.504z"/>
  <path d="m537.45 579.79h16.504v10.762h-16.504z"/>
 </g>
</svg>
